<?xml version="1.0" encoding="UTF-8"?>
<svg id="Layer_1" data-name="Layer 1" xmlns="http://www.w3.org/2000/svg" viewBox="0 0 512 512">
  <defs>
    <style>
      .cls-1, .cls-2 {
        fill: #fff;
      }

      .cls-2 {
        stroke: #389780;
        stroke-linecap: round;
        stroke-linejoin: round;
        stroke-width: 40px;
      }

      .cls-3 {
        fill: #389780;
      }
    </style>
  </defs>
  <g>
    <path class="cls-1" d="M256,492c-63.04,0-122.3-24.55-166.88-69.12-44.57-44.57-69.12-103.84-69.12-166.88s24.55-122.3,69.12-166.88C133.7,44.55,192.96,20,256,20s122.3,24.55,166.88,69.12c44.58,44.57,69.12,103.84,69.12,166.88s-24.55,122.3-69.12,166.88c-44.57,44.58-103.84,69.12-166.88,69.12Z"/>
    <path class="cls-3" d="M256,40c29.18,0,57.46,5.71,84.06,16.96,25.72,10.88,48.82,26.46,68.67,46.31,19.85,19.85,35.43,42.95,46.31,68.67,11.25,26.6,16.96,54.89,16.96,84.06s-5.71,57.46-16.96,84.06c-10.88,25.72-26.46,48.82-46.31,68.67s-42.95,35.43-68.67,46.31c-26.6,11.25-54.89,16.96-84.07,16.96s-57.46-5.71-84.06-16.96c-25.72-10.88-48.82-26.46-68.67-46.31-19.85-19.85-35.43-42.95-46.31-68.67-11.25-26.6-16.96-54.89-16.96-84.07s5.71-57.46,16.96-84.06c10.88-25.72,26.46-48.82,46.31-68.67,19.85-19.85,42.95-35.43,68.67-46.31,26.6-11.25,54.89-16.96,84.06-16.96M256,0h0C114.61,0,0,114.61,0,256h0c0,141.39,114.61,256,256,256h0c141.38,0,256-114.61,256-256h0C512,114.61,397.39,0,256,0h0Z"/>
  </g>
  <polyline class="cls-2" points="145.63 273.69 229.85 357.91 448.77 139"/>
</svg>